<?xml version="1.0" encoding="UTF-8"?>
<svg id="Layer_2" data-name="Layer 2" xmlns="http://www.w3.org/2000/svg" viewBox="0 0 247.88 34.46">
  <defs>
    <style>
      .cls-1 {
        fill: #d64f3f;
      }
    </style>
  </defs>
  <g id="Layer_1-2" data-name="Layer 1">
    <g>
      <path class="cls-1" d="M63.95,22.39c-6.29,0-11.56-4.47-12.79-10.4,2.29,1.58,5.06,2.52,8.05,2.52v-5.84c-4.59,0-8.32-3.73-8.32-8.32v-.2s0,0,0,0c0-.02,0-.04,0-.07V.01s-2.92.06-2.92.06l-2.91-.07v.06s0,.05,0,.07h-.01s0,.21,0,.21c0,4.59-3.73,8.32-8.32,8.32v5.84c2.99,0,5.76-.93,8.05-2.52-1.23,5.93-6.5,10.4-12.79,10.4s-11.53-4.44-12.78-10.35c2.27,1.55,5.02,2.46,7.97,2.46v-5.84c-4.59,0-8.32-3.73-8.32-8.32v-.21s0,0,0,0c0-.02,0-.05,0-.07v-.06s-2.92.07-2.92.07l-2.91-.06v.07s0,.04,0,.07h-.01s0,.2,0,.2c0,4.59-3.73,8.32-8.32,8.32v5.84c3.02,0,5.82-.95,8.12-2.57-1.21,5.96-6.49,10.46-12.8,10.46v5.84c5.06,0,9.67-2.01,13.07-5.26v11.49h5.84v-11.49c3.4,3.25,8,5.26,13.07,5.26s9.67-2.01,13.07-5.26v11.49h5.84v-11.49c3.4,3.25,8,5.26,13.07,5.26v-5.84Z"/>
      <g>
        <path class="cls-1" d="M76.01,12h-6.72v-3.96h18.31v3.96h-6.72v17.05h-4.86V12Z"/>
        <path class="cls-1" d="M90.22,8.04h4.86v21.01h-4.86V8.04Z"/>
        <path class="cls-1" d="M119.19,29.05l-.03-12.61-6.18,10.39h-2.19l-6.15-10.12v12.34h-4.56V8.04h4.02l7.87,13.06,7.75-13.06h3.99l.06,21.01h-4.56Z"/>
        <path class="cls-1" d="M148.02,23.32c0,3.63-2.88,5.73-8.41,5.73h-10.86V8.04h10.27c5.25,0,7.95,2.19,7.95,5.46,0,2.1-1.08,3.72-2.79,4.62,2.34.75,3.84,2.55,3.84,5.19ZM133.58,11.7v4.95h4.83c2.37,0,3.66-.84,3.66-2.49s-1.29-2.46-3.66-2.46h-4.83ZM143.13,22.81c0-1.77-1.35-2.61-3.87-2.61h-5.67v5.19h5.67c2.52,0,3.87-.78,3.87-2.58Z"/>
        <path class="cls-1" d="M165.11,29.05l-4.05-5.85h-4.47v5.85h-4.86V8.04h9.09c5.61,0,9.13,2.91,9.13,7.63,0,3.15-1.59,5.46-4.32,6.63l4.71,6.75h-5.22ZM160.55,12h-3.96v7.33h3.96c2.97,0,4.47-1.38,4.47-3.66s-1.5-3.66-4.47-3.66Z"/>
        <path class="cls-1" d="M173.8,8.04h4.86v21.01h-4.86V8.04Z"/>
        <path class="cls-1" d="M183.65,8.04h9.55c6.87,0,11.59,4.14,11.59,10.51s-4.71,10.5-11.59,10.5h-9.55V8.04ZM192.95,25.06c4.17,0,6.9-2.49,6.9-6.51s-2.73-6.51-6.9-6.51h-4.44v13.03h4.44Z"/>
        <path class="cls-1" d="M222.65,18.22h4.44v8.53c-2.31,1.74-5.49,2.67-8.5,2.67-6.6,0-11.47-4.53-11.47-10.86s4.86-10.87,11.56-10.87c3.69,0,6.75,1.26,8.79,3.63l-3.12,2.88c-1.53-1.62-3.3-2.37-5.43-2.37-4.08,0-6.87,2.73-6.87,6.72s2.79,6.72,6.81,6.72c1.32,0,2.55-.24,3.78-.9v-6.15Z"/>
        <path class="cls-1" d="M247.88,25.15v3.9h-16.27V8.04h15.88v3.9h-11.05v4.56h9.76v3.78h-9.76v4.86h11.44Z"/>
      </g>
    </g>
  </g>
</svg>